<svg width="38" height="38" viewBox="0 0 38 38" fill="none" xmlns="http://www.w3.org/2000/svg">
<path d="M6.13335 1.56666L19 14.4333L31.8 1.63332C32.0828 1.33238 32.4234 1.09164 32.8014 0.925531C33.1794 0.759423 33.5871 0.671371 34 0.666656C34.8841 0.666656 35.7319 1.01785 36.357 1.64297C36.9822 2.26809 37.3334 3.11593 37.3334 3.99999C37.3411 4.40866 37.2653 4.81461 37.1105 5.19293C36.9558 5.57124 36.7253 5.91394 36.4333 6.19999L23.4667 19L36.4333 31.9667C36.9827 32.5041 37.3049 33.232 37.3334 34C37.3334 34.884 36.9822 35.7319 36.357 36.357C35.7319 36.9821 34.8841 37.3333 34 37.3333C33.5752 37.3509 33.1514 37.28 32.7554 37.1251C32.3595 36.9702 32.0001 36.7346 31.7 36.4333L19 23.5667L6.16668 36.4C5.88503 36.6909 5.54856 36.9231 5.17669 37.0833C4.80481 37.2435 4.4049 37.3285 4.00001 37.3333C3.11596 37.3333 2.26811 36.9821 1.64299 36.357C1.01787 35.7319 0.66668 34.884 0.66668 34C0.658908 33.5913 0.734731 33.1854 0.889497 32.8071C1.04426 32.4287 1.2747 32.086 1.56668 31.8L14.5333 19L1.56668 6.03332C1.0173 5.49585 0.695145 4.76803 0.66668 3.99999C0.66668 3.11593 1.01787 2.26809 1.64299 1.64297C2.26811 1.01785 3.11596 0.666656 4.00001 0.666656C4.80001 0.676656 5.56668 0.99999 6.13335 1.56666Z" fill="#E2393C"/>
</svg>
