<svg width="135" height="130" viewBox="0 0 135 130" fill="none" xmlns="http://www.w3.org/2000/svg">
<path opacity="0.4" d="M23.7779 126.847L3.15292 106.222C1.69994 104.769 0.883652 102.798 0.883652 100.744C0.883652 98.6887 1.69994 96.718 3.15292 95.265C4.60593 93.812 6.5766 92.9958 8.63145 92.9958C10.6863 92.9958 12.657 93.812 14.11 95.265L21.5156 102.684L21.5156 28.5625C21.5156 26.5112 22.3305 24.5439 23.781 23.0935C25.2315 21.643 27.1987 20.8281 29.25 20.8281L108.527 20.8281L101.122 13.4096C100.402 12.6901 99.8315 11.836 99.4422 10.896C99.0528 9.956 98.8524 8.94851 98.8524 7.93106C98.8524 6.9136 99.0528 5.90611 99.4422 4.9661C99.8315 4.0261 100.402 3.17199 101.122 2.45254C101.841 1.73309 102.695 1.16239 103.635 0.77303C104.575 0.383667 105.583 0.183264 106.6 0.183264C107.618 0.183264 108.625 0.383667 109.565 0.77303C110.505 1.16239 111.359 1.73309 112.079 2.45254L132.704 23.0775C133.425 23.7961 133.997 24.6499 134.387 25.59C134.778 26.5302 134.979 27.5381 134.979 28.5561C134.979 29.574 134.778 30.5819 134.387 31.5221C133.997 32.4622 133.425 33.316 132.704 34.0346L112.079 54.6596C110.626 56.1126 108.655 56.9288 106.6 56.9288C104.545 56.9288 102.575 56.1126 101.122 54.6596C99.6687 53.2066 98.8524 51.2359 98.8524 49.1811C98.8524 47.1262 99.6687 45.1555 101.122 43.7025L108.527 36.2969L36.9844 36.2969L36.9844 102.684L44.4029 95.2586C45.8559 93.8056 47.8266 92.9893 49.8814 92.9893C51.9363 92.9893 53.907 93.8056 55.36 95.2586C56.813 96.7116 57.6292 98.6823 57.6292 100.737C57.6292 102.792 56.813 104.763 55.36 106.216L34.735 126.841C34.0168 127.562 33.1634 128.135 32.2235 128.526C31.2836 128.917 30.2757 129.118 29.2578 129.119C28.2398 129.119 27.2318 128.919 26.2914 128.529C25.3511 128.139 24.4969 127.568 23.7779 126.847Z" fill="#D0D0D0"/>
</svg>
