<svg width="312" height="292" viewBox="0 0 312 292" fill="none" xmlns="http://www.w3.org/2000/svg">
<path opacity="0.4" fill-rule="evenodd" clip-rule="evenodd" d="M0 38.9801C0 25.3507 0 18.536 2.65117 13.2789C4.99044 8.70334 8.71378 4.98446 13.2948 2.648C18.4997 0 25.3226 0 39.0268 0H58.5207C72.1665 0 78.9893 0 84.2527 2.648C88.8337 4.98446 92.5571 8.70334 94.8964 13.2789C97.5475 18.4776 97.5475 25.2923 97.5475 38.9801V58.4506C97.5475 72.08 97.5475 78.8947 94.8964 84.1518C92.5571 88.7273 88.8337 92.4462 84.2527 94.7827C81.4261 96.2235 78.1316 96.8855 73.5505 97.1776L102.791 194.725H116.983C130.629 194.725 137.452 194.725 142.715 197.373C147.296 199.71 151.019 203.428 153.359 208.004C156.01 213.203 156.01 220.017 156.01 233.705V250.411C164.782 251.917 172.969 252.806 180.572 253.078C200.846 253.799 216.246 250.021 227.357 242.447C243.342 231.563 253.284 210.71 253.674 175.274H253.479C239.834 175.274 233.011 175.274 227.747 172.626C223.165 170.293 219.439 166.572 217.104 161.995C214.453 156.796 214.452 149.982 214.452 136.294V116.823C214.452 103.194 214.453 96.3793 217.104 91.1222C219.443 86.5466 223.166 82.8278 227.747 80.4913C232.952 77.8433 239.775 77.8433 253.479 77.8433H272.973C286.619 77.8433 293.442 77.8433 298.705 80.4913C303.286 82.8278 307.01 86.5466 309.349 91.1222C312 96.3209 312 103.136 312 116.823V136.294C312 149.923 312 156.738 309.349 161.995C307.01 166.571 303.286 170.29 298.705 172.626C293.5 175.274 286.677 175.274 272.973 175.274H273.149C272.837 214.41 261.823 242.642 238.45 258.413C222.776 269.083 202.776 273.23 179.968 272.413C172.3 272.127 164.178 271.309 155.6 269.959C155.432 272.998 154.67 275.974 153.359 278.721C151.019 283.297 147.296 287.016 142.715 289.352C137.51 292 130.687 292 116.983 292H97.4696C83.8238 292 77.0009 292 71.7376 289.352C67.1553 287.019 63.4296 283.298 61.0939 278.721C58.4427 273.522 58.4427 266.708 58.4427 253.02V233.549C58.4427 219.92 58.4427 213.105 61.0939 207.848C63.4332 203.273 67.137 199.554 71.7376 197.217C74.5642 195.777 77.8587 195.114 82.4397 194.822L53.1989 97.2749H39.0073C25.3616 97.2749 18.5387 97.2749 13.2754 94.6269C8.69309 92.294 4.96738 88.5728 2.63168 83.996C0 78.7974 0 71.9827 0 58.2949V38.8243V38.9801ZM38.9878 19.5095H58.4817C65.636 19.5095 69.8077 19.5095 72.9072 19.7821C73.7718 19.8417 74.6314 19.9587 75.4804 20.1326C76.2649 20.5713 76.9126 21.2182 77.3518 22.0017C77.5259 22.8497 77.6431 23.7083 77.7027 24.5718C77.9756 27.6482 77.9756 31.8344 77.9756 38.9801V58.4506C77.9756 65.5963 77.9756 69.7436 77.7027 72.8588C77.6431 73.7224 77.5259 74.581 77.3518 75.429C76.9126 76.2125 76.2649 76.8594 75.4804 77.2981C74.6314 77.472 73.7718 77.589 72.9072 77.6486C69.8272 77.9212 65.636 77.9212 58.4817 77.9212H38.9878C31.8336 77.9212 27.6619 77.9017 24.5623 77.6486C23.6977 77.589 22.8381 77.472 21.9891 77.2981C21.2046 76.8594 20.557 76.2125 20.1177 75.429C19.9437 74.581 19.8265 73.7224 19.7668 72.8588C19.4979 68.0611 19.4068 63.2551 19.4939 58.4506V38.9801C19.4939 31.8344 19.4939 27.6677 19.7668 24.5718C19.8265 23.7083 19.9437 22.8497 20.1177 22.0017C20.557 21.2182 21.2046 20.5713 21.9891 20.1326C22.8381 19.9587 23.6977 19.8417 24.5623 19.7821C27.6424 19.5095 31.8336 19.5095 38.9878 19.5095ZM116.963 214.215H97.4696C90.3153 214.215 86.1436 214.215 83.0441 214.488C82.1795 214.547 81.3198 214.664 80.4709 214.838C79.6864 215.277 79.0387 215.924 78.5994 216.707C78.4254 217.555 78.3082 218.414 78.2486 219.277C77.9756 222.354 77.9756 226.54 77.9756 233.686V253.156C77.9756 260.282 77.9756 264.449 78.2486 267.564C78.3082 268.428 78.4254 269.287 78.5994 270.135C79.0387 270.918 79.6864 271.565 80.4709 272.004C81.3198 272.178 82.1795 272.295 83.0441 272.354C86.1241 272.627 90.3153 272.627 97.4696 272.627H116.963C124.118 272.627 128.289 272.607 131.389 272.354C132.254 272.295 133.113 272.178 133.962 272.004C134.747 271.565 135.394 270.918 135.834 270.135C136.008 269.287 136.125 268.428 136.184 267.564C136.457 264.488 136.457 260.302 136.457 253.156V233.686C136.457 226.559 136.457 222.373 136.184 219.277C136.125 218.414 136.008 217.555 135.834 216.707C135.394 215.924 134.747 215.277 133.962 214.838C133.113 214.664 132.254 214.547 131.389 214.488C126.585 214.219 121.774 214.128 116.963 214.215ZM253.421 97.3917H272.915C280.049 97.3917 284.241 97.3917 287.34 97.6643C288.205 97.7239 289.064 97.841 289.913 98.0148C290.698 98.4535 291.346 99.1004 291.785 99.884C291.959 100.732 292.076 101.591 292.136 102.454C292.409 105.53 292.409 109.717 292.409 116.862V136.333C292.409 143.479 292.409 147.626 292.136 150.741C292.076 151.605 291.959 152.463 291.785 153.311C291.346 154.095 290.698 154.742 289.913 155.18C289.064 155.354 288.205 155.471 287.34 155.531C284.26 155.803 280.069 155.803 272.915 155.803H253.421C246.286 155.803 242.095 155.784 238.995 155.531C238.131 155.471 237.271 155.354 236.422 155.18C235.638 154.742 234.99 154.095 234.551 153.311C234.377 152.463 234.259 151.605 234.2 150.741C233.931 145.943 233.84 141.137 233.927 136.333V116.862C233.927 109.717 233.927 105.55 234.2 102.454C234.259 101.591 234.377 100.732 234.551 99.884C234.99 99.1004 235.638 98.4535 236.422 98.0148C237.271 97.841 238.131 97.7239 238.995 97.6643C242.075 97.3917 246.267 97.3917 253.421 97.3917Z" fill="#D0D0D0"/>
</svg>
